# Blender v2.90.0 OBJ File: 'cinematic_1.blend'
# www.blender.org
mtllib u.mtl
o Plane.001_Plane.020
v 0.006844 -0.106548 -0.000310
v 0.030977 -0.106548 -0.000310
v 0.030977 -0.082415 -0.000310
v 0.009969 -0.078398 -0.000310
v 0.031840 0.049258 -0.000310
v 0.013540 0.061309 -0.000310
v -0.023953 0.050151 -0.000310
v -0.019043 -0.045368 -0.000310
v -0.047163 -0.059651 -0.000310
v -0.045825 0.063987 -0.000310
v 0.006844 -0.106548 -0.015997
v 0.009969 -0.078398 -0.015997
v 0.030977 -0.082415 -0.015997
v 0.030977 -0.106548 -0.015997
v 0.031840 0.049258 -0.015997
v 0.013540 0.061309 -0.015997
v -0.023953 0.050151 -0.016841
v -0.045502 0.063987 -0.015875
v -0.047163 -0.059651 -0.015997
v -0.019573 -0.047029 -0.015219
vt 0.000000 0.000000
vt 1.000000 0.000000
vt 1.000000 1.000000
vt 0.000000 1.000000
vt 0.000000 0.000000
vt 0.000000 0.000000
vt 0.000000 0.000000
vt 0.000000 0.000000
vt 0.000000 0.000000
vt 0.000000 0.000000
vt 0.000000 0.000000
vt 0.000000 1.000000
vt 1.000000 1.000000
vt 1.000000 0.000000
vt 0.000000 0.000000
vt 0.000000 0.000000
vt 0.000000 0.000000
vt 0.000000 0.000000
vt 0.000000 0.000000
vt 0.000000 0.000000
vn 0.0000 -0.0000 1.0000
vn 0.0000 0.0000 -1.0000
vn -0.0040 -0.0068 -1.0000
vn 0.0004 0.0041 -1.0000
vn 0.0005 0.0043 -1.0000
vn 0.0050 0.0153 -0.9999
vn 0.0000 -1.0000 0.0000
vn 1.0000 -0.0033 -0.0000
vn 1.0000 0.0000 0.0000
vn -0.9997 0.0256 0.0000
vn 0.5500 0.8352 0.0000
vn 1.0000 -0.0066 -0.0000
vn 0.9985 0.0460 -0.0296
vn 0.8510 -0.5250 -0.0139
vn 0.8663 -0.4582 0.1988
vn 0.8454 0.4525 0.2837
vn -0.6556 -0.7551 0.0000
vn 0.2419 -0.3100 -0.9195
vn -0.0813 0.3803 0.9213
vn 0.9201 -0.1561 0.3593
vn 0.9249 0.3460 0.1576
vn 0.5375 0.8432 0.0054
vn 0.9987 0.0480 -0.0194
usemtl Material.011
s 1
f 1/1/1 2/2/1 3/3/1 4/4/1
f 5/5/1 6/6/1 4/4/1 3/3/1
f 7/7/1 10/8/1 9/9/1 8/10/1
f 1/1/1 4/4/1 8/10/1 9/9/1
f 11/11/2 12/12/2 13/13/2 14/14/2
f 15/15/2 13/13/2 12/12/2 16/16/2
f 17/17/3 20/18/4 19/19/5 18/20/3
f 11/11/6 19/19/5 20/18/4 12/12/6
f 2/2/7 1/1/7 11/11/7 14/14/7
f 3/3/8 2/2/9 14/14/9 13/13/8
f 4/4/10 6/6/10 16/16/10 12/12/10
f 6/6/11 5/5/11 15/15/11 16/16/11
f 5/5/12 3/3/8 13/13/8 15/15/12
f 8/10/13 4/4/14 12/12/15 20/18/16
f 1/1/17 9/9/18 19/19/19 11/11/17
f 10/8/20 18/20/21 19/19/19 9/9/18
f 7/7/22 17/17/22 18/20/22 10/8/22
f 8/10/13 20/18/16 17/17/23 7/7/23
