# Blender v2.90.0 OBJ File: ''
# www.blender.org
mtllib v.mtl
o Plane.006_Plane.025
v -0.028827 -0.077110 -0.000000
v -0.006669 -0.077110 -0.000000
v -0.028827 -0.054952 -0.000000
v -0.009538 -0.038149 -0.000000
v -0.032925 0.067585 0.000000
v -0.012844 0.076602 0.000000
v 0.019969 -0.013969 -0.000000
v 0.042100 -0.022576 -0.000000
v 0.018740 0.076602 0.000000
v 0.038821 0.063077 0.000000
v -0.028827 -0.077110 -0.014403
v -0.006669 -0.077110 -0.014403
v -0.028827 -0.054952 -0.014403
v -0.009538 -0.038149 -0.014403
v -0.032925 0.067585 -0.014403
v -0.012844 0.076602 -0.014403
v 0.019969 -0.013969 -0.014403
v 0.042100 -0.022576 -0.014403
v 0.018740 0.076602 -0.014403
v 0.038821 0.063077 -0.014402
vt 0.000000 0.000000
vt 1.000000 0.000000
vt 1.000000 1.000000
vt 0.000000 1.000000
vt 0.000000 0.000000
vt 0.000000 0.000000
vt 0.000000 0.000000
vt 0.000000 0.000000
vt 0.000000 0.000000
vt 0.000000 0.000000
vt 0.000000 0.000000
vt 0.000000 1.000000
vt 1.000000 1.000000
vt 1.000000 0.000000
vt 0.000000 0.000000
vt 0.000000 0.000000
vt 0.000000 0.000000
vt 0.000000 0.000000
vt 0.000000 0.000000
vt 0.000000 0.000000
vn -0.0000 -0.0000 1.0000
vn 0.0000 0.0000 -1.0000
vn -1.0000 0.0000 0.0000
vn 0.0000 -1.0000 0.0000
vn -0.9994 -0.0334 0.0000
vn -0.4096 0.9123 0.0000
vn 0.9996 0.0288 0.0000
vn -0.6338 0.7735 0.0000
vn 0.7454 -0.6666 0.0000
vn -0.9999 -0.0136 0.0000
vn 0.5586 0.8294 0.0000
vn 0.9993 0.0382 0.0000
usemtl Material.001
s off
f 1/1/1 2/2/1 4/3/1 3/4/1
f 6/5/1 5/6/1 3/4/1 4/3/1
f 8/7/1 7/8/1 4/3/1 2/2/1
f 8/7/1 10/9/1 9/10/1 7/8/1
f 11/11/2 13/12/2 14/13/2 12/14/2
f 16/15/2 14/13/2 13/12/2 15/16/2
f 18/17/2 12/14/2 14/13/2 17/18/2
f 18/17/2 17/18/2 19/19/2 20/20/2
f 1/1/3 3/4/3 13/12/3 11/11/3
f 2/2/4 1/1/4 11/11/4 12/14/4
f 3/4/5 5/6/5 15/16/5 13/12/5
f 5/6/6 6/5/6 16/15/6 15/16/6
f 6/5/7 4/3/7 14/13/7 16/15/7
f 4/3/8 7/8/8 17/18/8 14/13/8
f 8/7/9 2/2/9 12/14/9 18/17/9
f 7/8/10 9/10/10 19/19/10 17/18/10
f 9/10/11 10/9/11 20/20/11 19/19/11
f 10/9/12 8/7/12 18/17/12 20/20/12
