# Blender v2.90.0 OBJ File: ''
# www.blender.org
mtllib d.mtl
o D_Plane.003
v -0.026532 -0.083796 0.007496
v -0.004696 -0.051830 0.007496
v -0.031450 0.083527 0.007496
v -0.012483 0.058118 0.007496
v -0.016697 0.092953 0.007496
v 0.001041 0.070003 0.007496
v 0.018664 -0.003765 0.007496
v 0.049401 -0.007044 0.007496
v 0.006663 -0.091173 0.007496
v 0.016089 -0.066994 0.007496
v -0.026532 -0.083796 -0.007496
v -0.004696 -0.051830 -0.007496
v -0.031450 0.083527 -0.007496
v -0.012483 0.058118 -0.007496
v -0.016697 0.092953 -0.007496
v 0.001041 0.070003 -0.007496
v 0.018664 -0.003765 -0.007496
v 0.049401 -0.007044 -0.007496
v 0.006663 -0.091173 -0.007496
v 0.016089 -0.066994 -0.007496
vt 0.000000 0.000000
vt 1.000000 0.000000
vt 1.000000 1.000000
vt 0.000000 1.000000
vt 0.000000 0.000000
vt 0.000000 0.000000
vt 0.000000 0.000000
vt 0.000000 0.000000
vt 0.000000 0.000000
vt 0.000000 0.000000
vt 0.000000 0.000000
vt 0.000000 0.000000
vt 0.000000 1.000000
vt 1.000000 1.000000
vt 1.000000 0.000000
vt 0.000000 0.000000
vt 0.000000 0.000000
vt 0.000000 0.000000
vt 0.000000 0.000000
vt 0.000000 0.000000
vt 0.000000 0.000000
vt 0.000000 0.000000
vn 0.0000 -0.0000 1.0000
vn -0.0000 0.0000 -1.0000
vn -0.9996 -0.0294 0.0000
vn 0.9975 0.0706 0.0000
vn -0.5384 0.8427 0.0000
vn 0.7912 0.6115 0.0000
vn -0.8932 -0.4496 0.0000
vn 0.8470 0.5316 0.0000
vn -0.2169 -0.9762 0.0000
vn 0.9317 -0.3632 0.0000
vn -0.8994 0.4371 0.0000
vn 0.8741 -0.4857 -0.0000
usemtl Material.001
s off
f 1/1/1 2/2/1 4/3/1 3/4/1
f 6/5/1 4/6/1 7/7/1 8/8/1
f 5/9/1 3/4/1 4/3/1 6/5/1
f 2/2/1 1/1/1 9/10/1 10/11/1
f 8/8/1 7/7/1 2/2/1 10/11/1
f 11/12/2 13/13/2 14/14/2 12/15/2
f 16/16/2 18/17/2 17/18/2 14/19/2
f 15/20/2 16/16/2 14/14/2 13/13/2
f 12/15/2 20/21/2 19/22/2 11/12/2
f 18/17/2 20/21/2 12/15/2 17/18/2
f 1/1/3 3/4/3 13/13/3 11/12/3
f 4/3/4 2/2/4 12/15/4 14/14/4
f 3/4/5 5/9/5 15/20/5 13/13/5
f 5/9/6 6/5/6 16/16/6 15/20/6
f 7/7/7 4/6/7 14/19/7 17/18/7
f 6/5/8 8/8/8 18/17/8 16/16/8
f 9/10/9 1/1/9 11/12/9 19/22/9
f 10/11/10 9/10/10 19/22/10 20/21/10
f 2/2/11 7/7/11 17/18/11 12/15/11
f 8/8/12 10/11/12 20/21/12 18/17/12
