# Blender v2.90.0 OBJ File: ''
# www.blender.org
mtllib m.mtl
o E.004_Plane.008
v -0.035971 0.020351 0.000000
v -0.051462 0.067808 0.000000
v -0.051462 -0.087761 -0.000000
v -0.028102 -0.099646 -0.000000
v -0.036217 0.074201 0.000000
v -0.016545 0.041252 0.000000
v 0.000667 0.004859 0.000000
v 0.003618 -0.036451 -0.000000
v 0.024273 0.073710 0.000000
v 0.027224 0.025023 0.000000
v 0.047387 0.065841 0.000000
v 0.047879 0.026990 0.000000
v 0.025257 -0.077761 -0.000000
v 0.043453 -0.098416 -0.000000
v -0.035971 0.020351 -0.014993
v -0.051462 0.067808 -0.014993
v -0.051462 -0.087761 -0.014993
v -0.028102 -0.099646 -0.014993
v -0.036217 0.074201 -0.014993
v -0.016545 0.041252 -0.014993
v 0.000667 0.004859 -0.014993
v 0.003618 -0.036451 -0.014993
v 0.024273 0.073710 -0.014992
v 0.027224 0.025023 -0.014993
v 0.047387 0.065841 -0.014993
v 0.047879 0.026990 -0.014993
v 0.025257 -0.077761 -0.014993
v 0.043453 -0.098416 -0.014993
vt 0.000000 0.000000
vt 0.000000 0.000000
vt 0.000000 0.000000
vt 0.000000 0.000000
vt 0.000000 0.000000
vt 0.000000 0.000000
vt 0.000000 0.000000
vt 0.000000 0.000000
vt 0.000000 0.000000
vt 0.000000 0.000000
vt 0.000000 0.000000
vt 0.000000 0.000000
vt 0.000000 0.000000
vt 0.000000 0.000000
vt 0.000000 0.000000
vt 0.000000 0.000000
vt 0.000000 0.000000
vt 0.000000 0.000000
vt 0.000000 0.000000
vt 0.000000 0.000000
vt 0.000000 0.000000
vt 0.000000 0.000000
vt 0.000000 0.000000
vt 0.000000 0.000000
vt 0.000000 0.000000
vt 0.000000 0.000000
vt 0.000000 0.000000
vt 0.000000 0.000000
vn 0.0000 -0.0000 1.0000
vn 0.0000 0.0000 -1.0000
vn -1.0000 -0.0000 0.0000
vn -0.4535 -0.8913 0.0000
vn 0.9979 0.0654 0.0000
vn -0.3867 0.9222 0.0000
vn 0.8586 0.5126 0.0000
vn 0.9040 0.4276 0.0000
vn -0.8204 -0.5718 0.0000
vn -0.9459 0.3243 0.0000
vn 0.9335 -0.3585 0.0000
vn 0.3223 0.9466 0.0000
vn 0.9999 0.0127 0.0000
vn -0.9998 0.0191 0.0000
vn -0.7504 -0.6610 0.0000
vn 0.9994 -0.0353 0.0000
usemtl Material.001
s off
f 4/1/1 1/2/1 2/3/1 3/4/1
f 6/5/1 5/6/1 2/3/1 1/2/1
f 8/7/1 10/8/1 9/9/1 7/10/1
f 1/2/1 8/7/1 7/10/1 6/5/1
f 10/8/1 12/11/1 11/12/1 9/9/1
f 12/11/1 10/8/1 13/13/1 14/14/1
f 18/15/2 17/16/2 16/17/2 15/18/2
f 20/19/2 15/18/2 16/17/2 19/20/2
f 22/21/2 21/22/2 23/23/2 24/24/2
f 15/18/2 20/19/2 21/22/2 22/21/2
f 24/24/2 23/23/2 25/25/2 26/26/2
f 26/26/2 28/27/2 27/28/2 24/24/2
f 3/4/3 2/3/3 16/17/3 17/16/3
f 4/1/4 3/4/4 17/16/4 18/15/4
f 1/2/5 4/1/5 18/15/5 15/18/5
f 2/3/6 5/6/6 19/20/6 16/17/6
f 5/6/7 6/5/7 20/19/7 19/20/7
f 6/5/8 7/10/8 21/22/8 20/19/8
f 8/7/9 1/2/9 15/18/9 22/21/9
f 7/10/10 9/9/10 23/23/10 21/22/10
f 10/8/11 8/7/11 22/21/11 24/24/11
f 9/9/12 11/12/12 25/25/12 23/23/12
f 11/12/13 12/11/13 26/26/13 25/25/13
f 13/13/14 10/8/14 24/24/14 27/28/14
f 14/14/15 13/13/15 27/28/15 28/27/15
f 12/11/16 14/14/16 28/27/16 26/26/16
