# Blender v2.90.0 OBJ File: ''
# www.blender.org
mtllib p.mtl
o E.011_Plane.015
v -0.007074 -0.028122 -0.000000
v -0.025516 -0.025909 -0.000000
v -0.026007 -0.061974 -0.000000
v -0.002647 -0.073858 -0.000000
v -0.004615 -0.005582 -0.000000
v -0.023057 -0.002713 -0.000000
v -0.012401 0.090317 0.000000
v 0.000303 0.060400 0.000000
v 0.062187 0.023925 0.000000
v 0.038827 0.023516 0.000000
v -0.007074 -0.028122 -0.014993
v -0.025516 -0.025909 -0.014992
v -0.026007 -0.061974 -0.014993
v -0.002647 -0.073858 -0.014993
v -0.004615 -0.005582 -0.014993
v -0.023057 -0.002713 -0.014993
v -0.012401 0.090317 -0.014993
v 0.000303 0.060400 -0.014993
v 0.062187 0.023925 -0.014993
v 0.038827 0.023516 -0.014992
vt 0.000000 0.000000
vt 0.000000 0.000000
vt 0.000000 0.000000
vt 0.000000 0.000000
vt 0.000000 0.000000
vt 0.000000 0.000000
vt 0.000000 0.000000
vt 0.000000 0.000000
vt 0.000000 0.000000
vt 0.000000 0.000000
vt 0.000000 0.000000
vt 0.000000 0.000000
vt 0.000000 0.000000
vt 0.000000 0.000000
vt 0.000000 0.000000
vt 0.000000 0.000000
vt 0.000000 0.000000
vt 0.000000 0.000000
vt 0.000000 0.000000
vt 0.000000 0.000000
vn 0.0000 -0.0000 1.0000
vn -0.0000 0.0000 -1.0000
vn -0.9999 0.0136 0.0000
vn -0.4535 -0.8913 0.0000
vn 0.9954 0.0963 0.0000
vn -0.9944 0.1054 0.0000
vn -0.9935 0.1138 0.0000
vn 0.9972 -0.0743 0.0000
vn 0.6649 0.7470 0.0000
vn -0.6916 -0.7223 0.0000
vn -0.5565 0.8308 0.0000
vn 0.6008 -0.7994 0.0000
usemtl Material.001
s off
f 4/1/1 1/2/1 2/3/1 3/4/1
f 2/3/1 1/2/1 5/5/1 6/6/1
f 8/7/1 7/8/1 6/6/1 5/5/1
f 8/7/1 10/9/1 9/10/1 7/8/1
f 5/5/1 1/2/1 9/10/1 10/9/1
f 14/11/2 13/12/2 12/13/2 11/14/2
f 12/13/2 16/15/2 15/16/2 11/14/2
f 18/17/2 15/16/2 16/15/2 17/18/2
f 18/17/2 17/18/2 19/19/2 20/20/2
f 15/16/2 20/20/2 19/19/2 11/14/2
f 3/4/3 2/3/3 12/13/3 13/12/3
f 4/1/4 3/4/4 13/12/4 14/11/4
f 1/2/5 4/1/5 14/11/5 11/14/5
f 2/3/6 6/6/6 16/15/6 12/13/6
f 6/6/7 7/8/7 17/18/7 16/15/7
f 8/7/8 5/5/8 15/16/8 18/17/8
f 7/8/9 9/10/9 19/19/9 17/18/9
f 10/9/10 8/7/10 18/17/10 20/20/10
f 5/5/11 10/9/11 20/20/11 15/16/11
f 9/10/12 1/2/12 11/14/12 19/19/12
