# Blender v2.90.0 OBJ File: ''
# www.blender.org
mtllib x.mtl
o Plane.004_Plane.023
v -0.015558 -0.001712 0.000000
v 0.000622 -0.016850 -0.000000
v -0.000420 0.014468 0.000000
v 0.015760 -0.000670 -0.000000
v -0.021321 0.076352 0.000000
v -0.040582 0.082089 0.000000
v 0.018842 0.071024 0.000000
v 0.043022 0.084138 0.000000
v -0.038098 -0.074661 -0.000000
v -0.019656 -0.089824 -0.000000
v 0.014556 -0.067669 -0.000000
v 0.042834 -0.076685 -0.000000
v -0.015558 -0.001712 -0.014403
v 0.000622 -0.016850 -0.014403
v -0.000420 0.014468 -0.014403
v 0.015760 -0.000670 -0.014403
v -0.021321 0.076352 -0.014403
v -0.040582 0.082089 -0.014403
v 0.018842 0.071024 -0.014403
v 0.043022 0.084138 -0.014403
v -0.038098 -0.074661 -0.014402
v -0.019656 -0.089824 -0.014402
v 0.014556 -0.067669 -0.014403
v 0.042834 -0.076685 -0.014403
vt 0.000000 0.000000
vt 1.000000 0.000000
vt 1.000000 1.000000
vt 0.000000 1.000000
vt 0.000000 0.000000
vt 0.000000 0.000000
vt 0.000000 0.000000
vt 0.000000 0.000000
vt 0.000000 0.000000
vt 0.000000 0.000000
vt 0.000000 0.000000
vt 0.000000 0.000000
vt 0.000000 0.000000
vt 0.000000 1.000000
vt 1.000000 1.000000
vt 1.000000 0.000000
vt 0.000000 0.000000
vt 0.000000 0.000000
vt 0.000000 0.000000
vt 0.000000 0.000000
vt 0.000000 0.000000
vt 0.000000 0.000000
vt 0.000000 0.000000
vt 0.000000 0.000000
vn 0.0000 -0.0000 1.0000
vn -0.0000 0.0000 -1.0000
vn 0.9474 0.3200 -0.0000
vn 0.2855 0.9584 0.0000
vn -0.9582 -0.2861 0.0000
vn -0.9466 0.3224 0.0000
vn -0.4768 0.8790 0.0000
vn 0.9520 -0.3060 -0.0000
vn -0.9554 0.2952 0.0000
vn -0.6351 -0.7724 0.0000
vn 0.9635 -0.2677 0.0000
vn -0.9644 -0.2644 0.0000
vn -0.3038 -0.9527 0.0000
vn 0.9420 0.3355 0.0000
usemtl Material.001
s off
f 1/1/1 2/2/1 4/3/1 3/4/1
f 1/1/1 3/4/1 5/5/1 6/6/1
f 8/7/1 7/8/1 3/4/1 4/3/1
f 2/2/1 1/1/1 9/9/1 10/10/1
f 4/3/1 2/2/1 11/11/1 12/12/1
f 13/13/2 15/14/2 16/15/2 14/16/2
f 13/13/2 18/17/2 17/18/2 15/14/2
f 20/19/2 16/15/2 15/14/2 19/20/2
f 14/16/2 22/21/2 21/22/2 13/13/2
f 16/15/2 24/23/2 23/24/2 14/16/2
f 5/5/3 3/4/3 15/14/3 17/18/3
f 6/6/4 5/5/4 17/18/4 18/17/4
f 1/1/5 6/6/5 18/17/5 13/13/5
f 3/4/6 7/8/6 19/20/6 15/14/6
f 7/8/7 8/7/7 20/19/7 19/20/7
f 8/7/8 4/3/8 16/15/8 20/19/8
f 9/9/9 1/1/9 13/13/9 21/22/9
f 10/10/10 9/9/10 21/22/10 22/21/10
f 2/2/11 10/10/11 22/21/11 14/16/11
f 11/11/12 2/2/12 14/16/12 23/24/12
f 12/12/13 11/11/13 23/24/13 24/23/13
f 4/3/14 12/12/14 24/23/14 16/15/14
